# xmcd
#
# Track frame offsets: 
#        150
#        23273
#        40969
#        63969
#        96607
#        115151
#        131473
#        150342
#        167389
#        191773
#        211024
#        232376
#        264618
#
# Disc length: 3734 seconds
#
# Revision: 0
# Processed by: cddbd v1.5.2PL0 Copyright (c) Steve Scherf et al.
# Submitted via: ExactAudioCopy v0.95a5
#
DISCID=a80e940d
DTITLE=Howard Glazer and The El 34's - Liquor Store Legend
DYEAR=2007
DGENRE=Blues
TTITLE0=Liquor Store Legend
TTITLE1=Let's Go For A Ride
TTITLE2=Broken Down Hotel Blues
TTITLE3=Wonder Why
TTITLE4=Hanging By A Thread
TTITLE5=Burning Ain't No Fun
TTITLE6=Got To Get Going
TTITLE7=Take Me Baby
TTITLE8=Power
TTITLE9=Gas Pump Blues
TTITLE10=Walking In The Rain
TTITLE11=Bar Fly Boogie
TTITLE12=Next Train Out
EXTD=
EXTT0=
EXTT1=
EXTT2=
EXTT3=
EXTT4=
EXTT5=
EXTT6=
EXTT7=
EXTT8=
EXTT9=
EXTT10=
EXTT11=
EXTT12=
PLAYORDER=
